<?xml version="1.0" encoding="UTF-8" standalone="no"?>
<!-- Created with Inkscape (http://www.inkscape.org/) -->

<svg
   xmlns:dc="http://purl.org/dc/elements/1.1/"
   xmlns:cc="http://creativecommons.org/ns#"
   xmlns:rdf="http://www.w3.org/1999/02/22-rdf-syntax-ns#"
   xmlns:svg="http://www.w3.org/2000/svg"
   xmlns="http://www.w3.org/2000/svg"
   xmlns:xlink="http://www.w3.org/1999/xlink"
   xmlns:sodipodi="http://sodipodi.sourceforge.net/DTD/sodipodi-0.dtd"
   xmlns:inkscape="http://www.inkscape.org/namespaces/inkscape"
   width="744.09448"
   height="1052.3622"
   id="svg2"
   version="1.1"
   inkscape:version="0.48.4 r9939"
   sodipodi:docname="Deckblatt.svg">
  <defs
     id="defs4" />
  <sodipodi:namedview
     id="base"
     pagecolor="#ffffff"
     bordercolor="#666666"
     borderopacity="1.0"
     inkscape:pageopacity="0.0"
     inkscape:pageshadow="2"
     inkscape:zoom="0.7"
     inkscape:cx="172.33863"
     inkscape:cy="362.10194"
     inkscape:document-units="mm"
     inkscape:current-layer="layer3"
     showgrid="false"
     inkscape:window-width="1680"
     inkscape:window-height="1000"
     inkscape:window-x="0"
     inkscape:window-y="0"
     inkscape:window-maximized="1"
     showguides="false"
     inkscape:guide-bbox="true"
     units="mm"
     inkscape:snap-grids="false"
     inkscape:snap-bbox="true"
     inkscape:snap-bbox-midpoints="true"
     inkscape:snap-global="false">
    <sodipodi:guide
       orientation="0,1"
       position="-35.433071,350.7874"
       id="guide3069" />
    <sodipodi:guide
       orientation="0,1"
       position="-35.433071,701.5748"
       id="guide3071" />
    <inkscape:grid
       units="mm"
       empspacing="10"
       visible="true"
       enabled="true"
       snapvisiblegridlinesonly="true"
       type="xygrid"
       id="grid3073" />
    <sodipodi:guide
       orientation="0,1"
       position="-35.433071,526.1811"
       id="guide3079" />
    <sodipodi:guide
       orientation="0,1"
       position="-35.433071,175.3937"
       id="guide3081" />
    <sodipodi:guide
       orientation="0,1"
       position="-35.433071,876.9685"
       id="guide3083" />
    <sodipodi:guide
       orientation="0,1"
       position="-35.433071,789.27165"
       id="guide3085" />
    <sodipodi:guide
       orientation="0,1"
       position="-35.433071,613.87795"
       id="guide3087" />
    <sodipodi:guide
       orientation="0,1"
       position="-35.433071,87.69685"
       id="guide3089" />
  </sodipodi:namedview>
  <metadata
     id="metadata7">
    <rdf:RDF>
      <cc:Work
         rdf:about="">
        <dc:format>image/svg+xml</dc:format>
        <dc:type
           rdf:resource="http://purl.org/dc/dcmitype/StillImage" />
        <dc:title />
      </cc:Work>
    </rdf:RDF>
  </metadata>
  <g
     inkscape:label="Grafik"
     inkscape:groupmode="layer"
     id="layer1"
     style="display:none"
     transform="translate(0,-2.5390623e-6)"
     sodipodi:insensitive="true">
    <image
       y="58.005043"
       x="211.21428"
       id="image3050"
       xlink:href="file:///home/wolfgang/Noten/Galuppi/Nisi%20Dominus%20BurG%20II_34/Deckblatt/xxx.png"
       height="132.78822"
       width="316.14285" />
  </g>
  <g
     inkscape:groupmode="layer"
     id="layer2"
     inkscape:label="Trace"
     style="display:none"
     transform="translate(0,-2.5390623e-6)"
     sodipodi:insensitive="true" />
  <g
     inkscape:groupmode="layer"
     id="layer3"
     inkscape:label="Deckblatt"
     transform="translate(0,-2.5390623e-6)">
    <g
       id="g3055"
       transform="translate(93.781433,248.90889)">
      <text
         sodipodi:linespacing="125%"
         id="text3047"
         y="434.14883"
         x="279.31418"
         style="font-size:16px;font-style:normal;font-variant:normal;font-weight:normal;font-stretch:normal;text-align:center;line-height:125%;letter-spacing:2.13999987px;word-spacing:0px;text-anchor:middle;fill:#000000;fill-opacity:1;stroke:none;font-family:EB Garamond 12 All SC;-inkscape-font-specification:EB Garamond 12 All SC"
         xml:space="preserve"><tspan
           y="434.14883"
           x="280.38419"
           id="tspan3049"
           sodipodi:role="line">baldassare</tspan></text>
      <text
         sodipodi:linespacing="125%"
         id="text3051"
         y="452.66589"
         x="277.94019"
         style="font-size:12px;font-style:normal;font-variant:normal;font-weight:normal;font-stretch:normal;text-align:center;line-height:125%;letter-spacing:5.19000053px;word-spacing:0px;text-anchor:middle;fill:#d40000;fill-opacity:1;stroke:none;font-family:EB Garamond;-inkscape-font-specification:EB Garamond"
         xml:space="preserve"><tspan
           style="font-size:20px;letter-spacing:5.19000053px;fill:#d40000"
           y="452.66589"
           x="280.53519"
           id="tspan3053"
           sodipodi:role="line">GALUPPI</tspan></text>
    </g>
    <text
       xml:space="preserve"
       style="font-size:12px;font-style:normal;font-variant:normal;font-weight:normal;font-stretch:normal;text-align:center;line-height:110.00000238%;letter-spacing:0px;word-spacing:0px;text-anchor:middle;fill:#000000;fill-opacity:1;stroke:none;font-family:EB Garamond;-inkscape-font-specification:EB Garamond"
       x="372.3208"
       y="412.09424"
       id="text3061"
       sodipodi:linespacing="110%"><tspan
         sodipodi:role="line"
         x="372.3208"
         y="412.09424"
         id="tspan3067"
         style="font-size:14px;font-style:normal;line-height:110.00000238%;-inkscape-font-specification:EB Garamond">Nisi Dominus.</tspan><tspan
         sodipodi:role="line"
         x="372.3208"
         y="427.49423"
         style="font-size:14px;font-style:normal;line-height:110.00000238%;-inkscape-font-specification:EB Garamond"
         id="tspan3830">a 4° Concertato</tspan><tspan
         sodipodi:role="line"
         x="372.3208"
         y="442.89423"
         style="font-size:14px;font-style:normal;line-height:110.00000238%;-inkscape-font-specification:EB Garamond"
         id="tspan3075" /><tspan
         sodipodi:role="line"
         x="372.3208"
         y="458.29425"
         style="font-size:14px;font-style:normal;line-height:110.00000238%;-inkscape-font-specification:EB Garamond"
         id="tspan3077">BurG II/48</tspan></text>
    <text
       xml:space="preserve"
       style="font-size:14px;font-style:normal;font-variant:normal;font-weight:normal;font-stretch:normal;text-align:center;line-height:125%;letter-spacing:1.84000015px;word-spacing:0px;text-anchor:middle;fill:#000000;fill-opacity:1;stroke:none;font-family:EB Garamond 12 All SC;-inkscape-font-specification:EB Garamond 12 All SC"
       x="372.06738"
       y="967.76636"
       id="text3099"
       sodipodi:linespacing="125%"><tspan
         sodipodi:role="line"
         x="372.9874"
         y="967.76636"
         id="tspan3023">full score</tspan></text>
    <text
       sodipodi:linespacing="110%"
       id="text3021"
       y="876.96851"
       x="371.86884"
       style="font-size:12px;font-style:normal;font-variant:normal;font-weight:normal;font-stretch:normal;text-align:center;line-height:110.00000238%;letter-spacing:0px;word-spacing:0px;text-anchor:middle;fill:#000000;fill-opacity:1;stroke:none;font-family:EB Garamond;-inkscape-font-specification:EB Garamond"
       xml:space="preserve"><tspan
         id="tspan3032"
         style="font-size:14px;font-style:normal;line-height:110.00000238%;-inkscape-font-specification:EB Garamond"
         y="876.96851"
         x="371.86884"
         sodipodi:role="line">2 Vl (solo) / 2 Vl (rip.) / Va / SSA (soli) / SATB (coro) / BOrg</tspan></text>
    <path
       style="fill:#000000;stroke:none;display:inline"
       d="m 489.22255,306.48365 c -0.91744,-0.25187 -2.30679,-1.2271 -3.93095,-2.75924 -2.62261,-2.47404 -3.11432,-3.28791 -2.72585,-4.51185 0.29547,-0.93094 1.28478,-0.96289 1.28478,-0.0415 0,1.02735 2.20957,4.21692 3.59018,5.1825 0.70378,0.49223 1.95867,0.91469 3.01986,1.01665 4.27166,0.41045 7.08618,-2.9599 7.4998,-8.98091 0.0667,-0.97089 0.22393,-2.01304 0.34941,-2.31588 0.12548,-0.30284 0.26849,-1.21133 0.31782,-2.01887 0.0779,-1.27653 -0.0184,-1.48359 -0.73811,-1.58587 -0.45529,-0.0647 -1.72525,0.30695 -2.82215,0.82586 -2.54197,1.20255 -3.61231,1.19494 -4.75163,-0.0337 -0.90153,-0.97226 -0.91141,-0.97379 -1.94203,-0.30289 -0.56973,0.37088 -1.21395,0.91387 -1.4316,1.20665 -0.55866,0.75154 -2.29847,0.66145 -2.89161,-0.14973 -0.73062,-0.99917 -0.9471,-2.9118 -0.56038,-4.95098 0.3698,-1.94991 0.1547,-3.04205 -0.54615,-2.77311 -0.65424,0.25105 -1.0929,-0.16101 -1.65851,-1.55796 -0.47182,-1.16529 -0.45001,-1.29004 0.33682,-1.92718 0.97429,-0.78892 1.98378,-0.87881 2.49743,-0.22238 0.76728,0.98056 1.22102,4.04283 0.98498,6.6476 -0.19947,2.20121 -0.13861,2.72669 0.36414,3.14393 0.53046,0.44025 0.80268,0.28417 2.24578,-1.28766 0.90318,-0.98376 1.6434,-1.87484 1.64493,-1.98019 0.002,-0.10535 0.16462,-1.18861 0.36244,-2.40726 0.46923,-2.89057 1.66666,-5.3973 2.49939,-5.23224 1.08559,0.21516 0.76952,2.4485 -0.90606,6.4022 -0.75396,1.77903 -0.61005,2.91716 0.47698,3.77222 0.53196,0.41844 1.19086,0.76081 1.46422,0.76081 0.72089,0 4.74943,-3.14817 5.65382,-4.41827 0.42411,-0.59561 0.66189,-1.25966 0.52839,-1.47565 -0.13349,-0.21599 -0.004,-0.67138 0.28628,-1.01197 0.29093,-0.3406 1.06688,-2.27113 1.72434,-4.29007 1.47269,-4.52246 3.30446,-7.87667 5.01338,-9.18012 0.71295,-0.54381 0.91829,-0.69445 1.23439,-0.56093 0.33722,0.14242 0.39966,0.19284 0.64708,0.63644 0.38939,0.69814 0.28665,1.09533 -0.76431,2.95466 -0.66779,1.18145 -1.39876,2.6776 -1.62437,3.32476 -0.2256,0.64717 -0.95774,2.04315 -1.62698,3.10217 -1.67697,2.65368 -2.12395,3.49596 -2.12395,4.00233 0,0.23922 -0.21843,0.69571 -0.48539,1.01445 -0.26698,0.31874 -0.66779,1.24027 -0.89072,2.04785 -0.57862,2.09613 -1.32284,8.49391 -1.06593,9.1634 0.11908,0.31033 0.0878,0.56423 -0.0696,0.56423 -0.15739,0 -0.49775,0.82556 -0.75634,1.83458 -0.25862,1.009 -0.62021,1.92728 -0.80356,2.0406 -0.18336,0.11332 -0.33338,0.49563 -0.33338,0.84959 0,0.97179 -1.29041,3.43401 -2.26075,4.31367 -1.35024,1.22408 -4.19706,1.7511 -6.31628,1.1693 z m 14.44216,-28.12739 c 0.004,-0.26585 0.4157,-1.01766 0.91382,-1.67072 0.76855,-1.00763 2.76515,-5.02595 2.76515,-5.5651 0,-0.59981 -0.83895,0.22312 -1.37031,1.06769 -1.08721,1.72805 -2.4991,3.33249 -2.66758,5.42162 0,0.29282 -0.14662,0.68932 -0.32583,0.88112 -0.17919,0.1918 -0.43733,0.76169 -0.57362,1.26643 l -0.24781,0.9177 0.74901,-0.9177 c 0.41195,-0.50474 0.75267,-1.13521 0.75717,-1.40104 z M 306.49123,255.90862 c 0.39707,-0.50409 0.80995,-1.519 1.58132,-2.67587 2.34034,-3.50996 5.36167,-8.62062 6.34581,-10.73412 0.37604,-0.80757 0.78319,-1.55092 0.90476,-1.65186 0.36232,-0.30084 1.13875,-1.79699 1.13875,-2.19433 0,-0.20288 0.57814,-1.1263 1.28478,-2.05204 0.70662,-0.92573 1.28478,-1.83079 1.28478,-2.01124 0,-0.18044 0.42478,-1.25676 0.94397,-2.39181 1.5671,-3.42603 0.54359,-4.08566 -2.43821,-1.57138 -0.99522,0.83919 -1.80948,1.73484 -1.80948,1.99034 0,0.25551 -0.66075,1.03013 -1.46833,1.72139 -0.80758,0.69126 -1.46832,1.41453 -1.46832,1.60728 0,0.66191 -0.91788,2.3265 -1.28478,2.32996 -1.31889,0.0124 -7.65357,9.37185 -9.01613,13.32121 -0.43301,1.25508 -0.9338,2.61235 -1.11288,3.01614 -0.3841,0.86612 -1.37702,4.81372 -1.80044,7.15806 -0.16409,0.90853 -0.41816,2.06483 -0.56461,2.56957 -0.19917,0.68641 0.23153,0.37197 1.70892,-1.24768 1.08637,-1.19095 2.1404,-2.44019 2.34229,-2.77608 0.59284,-0.9863 1.86802,-2.42729 2.26023,-2.92522 z m -29.67408,11.77725 c -0.84346,0.9263 -1.59015,2.23044 -1.86855,2.60729 -0.62636,0.84784 -0.32911,0.42865 -0.62607,0.92417 -0.54574,0.91064 -1.09059,3.18559 -1.32141,5.12841 -0.15062,1.26783 -0.29888,1.57324 -0.47223,2.42885 l -0.52804,2.60636 c -0.48973,2.41723 -0.81279,3.29067 -1.2164,4.7996 -0.20859,0.77986 -0.95062,1.92718 -1.08521,2.76883 -0.22868,1.43014 -0.64098,1.96155 -0.93649,2.6544 -0.0749,0.17556 -0.31155,1.0773 -0.47484,1.48778 -0.11586,0.29124 -0.41726,0.96242 -0.65079,1.32903 -0.74174,1.16438 -0.61492,1.61797 -2.383,3.79997 -0.54244,0.66944 -0.89889,1.08342 -1.12307,1.325 l -1.36417,1.47005 c -0.52734,0.56825 -1.67913,1.755 -2.73347,2.45542 -1.55514,1.03308 -2.35196,1.30186 -4.22142,1.42393 -1.26745,0.0828 -2.61552,0.0606 -2.99576,-0.0492 -3.45152,-0.99691 -11.02213,-6.68762 -13.09933,-9.84658 -0.73455,-1.11708 -1.64884,-2.31956 -2.03176,-2.67218 -0.97208,-0.89518 -2.09244,-2.5527 -3.03757,-4.49395 -0.44233,-0.90852 -1.11674,-2.23 -1.49869,-2.93664 -0.38194,-0.70662 -0.80872,-1.94553 -0.9484,-2.7531 -0.13968,-0.80758 -0.49858,-1.94605 -0.79757,-2.52995 -0.42074,-0.82166 -0.50169,-1.96535 -0.35814,-5.05998 0.10201,-2.19909 0.33926,-4.19916 0.52723,-4.44458 0.18796,-0.24543 0.72469,-1.4934 1.19273,-2.77329 0.46803,-1.27988 1.22174,-2.8734 1.6749,-3.54118 0.45316,-0.66777 0.92659,-1.53759 1.05207,-1.93294 0.50353,-1.58646 5.52171,-10.63924 6.59275,-11.89329 0.62967,-0.73724 1.71912,-2.14132 2.42103,-3.12017 0.70191,-0.97887 2.60888,-3.12054 4.23772,-4.75928 1.62883,-1.63874 2.9057,-3.147 2.83748,-3.35168 -0.0682,-0.20469 0.30947,-0.48097 0.83933,-0.61396 0.52987,-0.13298 1.56948,-0.63848 2.31025,-1.12332 1.89231,-1.23854 5.30298,-1.56305 7.03659,-0.66949 1.35341,0.69759 2.57715,2.56252 3.325,5.06718 0.52393,1.75472 0.49017,7.43279 -0.0566,9.52247 -0.21443,0.81947 -0.56216,2.15069 -0.77274,2.95827 -0.896,3.43612 -2.30772,7.06796 -2.81303,7.48733 -0.37644,0.31241 0.22147,-1.40431 0.89273,-3.26521 1.51212,-4.19194 2.0279,-8.17133 1.58166,-12.20298 -0.50065,-4.52323 -1.24755,-6.162 -3.29485,-7.22911 -2.15905,-1.12536 -4.03696,-0.84345 -7.04769,1.058 -2.38729,0.86752 -4.20469,3.83295 -5.6432,5.13031 -0.81341,0.73359 -4.95904,5.23457 -7.26134,9.38874 -0.78326,1.41326 -1.78662,3.06512 -2.2297,3.6708 -0.86597,1.18376 -4.62407,8.83036 -5.23191,10.64533 -0.20284,0.60569 -0.3801,1.43161 -0.39391,1.8354 -0.0138,0.40379 -0.1211,2.33669 -0.23842,4.29533 -0.23632,3.94513 0.29233,6.59509 1.86129,9.33009 0.47698,0.83147 0.7654,1.6136 0.64093,1.73807 -0.47165,0.47164 5.67127,9.30855 6.52934,9.3928 0.12127,0.0119 1.61133,1.38444 3.31123,3.05006 3.70581,3.63109 6.40783,5.11293 9.73862,5.34084 2.62709,0.17976 4.49621,-0.34451 6.12462,-1.7179 0.63884,-0.53879 1.442,-1.15315 1.75956,-1.52828 l 0.99745,-1.17831 c 0.48658,-0.57482 1.92946,-2.94707 2.81851,-4.50931 0.35101,-0.61678 0.40175,-0.72329 0.6544,-1.1727 0.19431,-0.34566 0.36812,-0.77407 0.53273,-1.38395 0.0725,-0.26862 0.0315,-0.50356 0.2617,-1.15846 0.38343,-1.0908 0.76108,-1.65247 0.97515,-2.29426 0.20138,-0.60371 0.68905,-1.51664 1.21242,-3.43365 0.41248,-1.51082 0.80478,-2.98713 0.86243,-3.30372 l 0.55959,-3.07298 c 0.18254,-1.00238 0.37238,-1.51846 0.74028,-3.14624 0.12688,-0.56137 0.24559,-1.41602 0.24683,-1.66839 0.004,-0.65067 -0.61077,-0.56981 -0.87357,0.11503 -0.12112,0.31565 -0.38289,0.47336 -0.58171,0.35049 -0.21836,-0.13497 -0.0741,-0.75969 0.36449,-1.57793 0.39928,-0.74498 0.72597,-1.64603 0.72597,-2.00234 0,-0.3563 0.15991,-0.64782 0.35536,-0.64782 0.19545,0 0.6018,-0.45427 0.90301,-1.00948 0,0 0.39219,-1.77422 0.58828,-2.66133 0.10894,-0.49285 0.24925,-1.12385 0.35584,-1.46832 0,0 0.50664,-1.63742 0.75996,-2.45613 0.13082,-0.4228 0.27299,-0.80383 0.34127,-1.03113 0,0 0.89936,-3.39688 1.51384,-5.03982 1.33678,-3.57416 4.70988,-10.43415 4.70988,-10.43415 0.41566,-0.77554 0.59979,-1.46208 0.40915,-1.52563 -0.19063,-0.0636 -0.0266,-0.47688 0.36461,-0.91852 0.39117,-0.44165 0.99246,-1.12553 1.33621,-1.51975 0.42612,-0.48869 0.77278,-2.00715 1.08945,-4.77204 0.25544,-2.23041 0.54506,-4.59654 0.64358,-5.25807 0.22303,-1.49754 2.0326,-5.58821 2.47202,-5.58821 0.17865,0 0.51848,-0.45427 0.75518,-1.00947 0.23669,-0.55521 0.9352,-1.47226 1.55222,-2.03789 2.64948,-2.42877 6.10188,-2.8612 8.94246,-1.12006 1.62159,0.99396 1.82117,1.03077 3.37536,0.62252 2.25854,-0.59326 3.16344,-0.58439 4.37654,0.0429 1.64019,0.84817 1.64296,1.83056 0.0148,5.22579 -0.80007,1.66843 -1.45469,3.1938 -1.45469,3.3897 0,0.19592 -0.21784,0.4883 -0.48406,0.64975 -0.7322,0.44402 -2.67647,3.46568 -2.94851,4.58238 -0.13199,0.5418 -0.74662,1.34585 -1.36584,1.78678 -1.20366,0.85708 -1.80344,2.03242 -1.98359,3.88706 -0.0616,0.63401 -0.46047,1.50123 -0.88641,1.92717 -0.42595,0.42595 -0.77444,1.02447 -0.77444,1.33005 0,0.30557 -0.15718,0.84243 -0.3493,1.193 -0.55282,1.00882 -1.38525,3.07814 -1.88074,4.6753 -0.25053,0.80757 -1.35318,3.35663 -2.45034,5.66457 -1.09716,2.30795 -2.08049,4.72407 -2.18517,5.36915 -0.18488,1.13928 1.66862,7.0356 2.56571,8.16197 0.59558,0.74782 1.12031,0.41896 3.2592,-2.04264 1.92111,-2.21095 2.02692,-2.44381 2.66887,-5.87329 0.61613,-3.29153 1.39388,-6.4679 2.49228,-10.17852 0.55771,-1.88402 3.11934,-7.23347 4.46862,-9.33177 1.14452,-1.77988 1.49472,-2.23591 2.64274,-3.44151 0.42355,-0.44478 1.24949,-1.46938 1.83541,-2.27687 1.24715,-1.71879 3.81969,-4.94979 5.43518,-6.82635 1.82872,-2.12426 3.948,-3.33651 5.59618,-3.20111 1.29143,0.10611 1.42323,0.21711 1.52674,1.28578 0.11076,1.14362 -0.12291,1.70949 -1.94231,4.70365 -0.49073,0.80757 -0.8994,1.822 -0.90816,2.25428 -0.009,0.43228 -0.67024,1.57778 -1.46996,2.54554 -0.79972,0.96778 -1.54768,2.18596 -1.66214,2.70709 -0.11446,0.52111 -0.65963,1.44045 -1.21149,2.04295 -0.55186,0.60251 -1.21309,1.50844 -1.46938,2.01318 -1.26112,2.48359 -2.85458,4.94857 -6.3619,9.84147 -0.34491,0.48118 -0.63088,0.82472 -0.8262,1.07344 l -1.03607,1.31942 c -0.44823,0.57082 -1.70978,2.572 -2.95532,4.03087 -0.65667,0.76916 -1.48697,1.96676 -1.8451,2.66134 -0.35814,0.69458 -0.79359,1.26287 -0.96765,1.26287 -0.54975,0 -1.55235,2.54831 -1.69595,4.31062 -0.0759,0.93204 -0.42491,2.15458 -0.58759,2.77979 l -0.67669,2.60069 c -0.37266,1.43223 -0.10819,2.34742 -0.40533,3.34866 -0.0742,0.2501 -0.65139,1.81709 -1.09329,3.57904 -0.44191,1.76195 -0.92582,3.20355 -1.07535,3.20355 -0.42517,0 -2.27159,4.35191 -2.13886,5.04113 0.17141,0.89006 1.54334,1.14741 4.93488,0.92569 3.79933,-0.24836 4.9076,0.009 4.9076,1.14171 0,0.83675 -0.0954,0.85914 -4.68027,1.09803 -5.25432,0.27379 -8.85827,0.99523 -10.37823,2.07754 -1.09271,0.77808 -2.56571,0.90034 -3.98855,0.33106 l -3e-5,0 c -0.8485,-0.33948 -0.85549,-0.37401 -0.21841,-1.07797 0.36198,-0.4 0.93058,-0.72726 1.26355,-0.72726 1.7442,0 6.3111,-4.06828 8.09075,-7.2074 0.79144,-1.39601 0.83431,-1.67136 1.08584,-2.17643 0.40702,-0.81733 0.2274,-0.92652 0.58168,-1.52364 0.64245,-1.08276 0.56489,-1.71588 0.38909,-2.99843 -0.12219,-0.89152 -0.37236,-1.8028 -0.55592,-2.02506 -0.18357,-0.22226 -0.444,-1.06486 -0.57874,-1.87244 -0.45353,-2.71816 -0.68459,-2.80079 -2.65024,-0.94771 -0.84956,0.80092 -1.94252,1.02433 -1.94252,0.39709 0,-0.20189 0.2155,-0.36708 0.47889,-0.36708 0.26338,0 1.10827,-0.57648 1.87749,-1.28108 l 1.39862,-1.28108 -0.86803,-0.90186 c -0.61947,-0.64363 -0.88037,-1.35876 -0.91114,-2.49742 -0.0447,-1.65607 -0.98902,-3.94974 -1.62604,-3.94974 -0.20105,0 -0.55268,0.45427 -0.78143,1.00948 -0.57384,1.39279 -1.71283,4.04176 -2.44465,5.68554 -0.60701,1.36344 -1.16159,1.80243 -1.16159,0.91948 0,-0.82379 0.71171,-2.96873 1.05638,-3.18371 0.36386,-0.22696 2.9815,-5.65925 2.9815,-6.18739 0,-0.4129 -1.40764,-5.13036 -1.86924,-6.26445 -0.34804,-0.85505 -0.36453,-0.84831 -1.79551,0.73416 -0.79435,0.87843 -1.45103,1.42748 -1.45932,1.22011 -0.008,-0.20738 0.51714,-0.95072 1.1676,-1.65186 1.39149,-1.49992 1.45852,-2.35796 0.67307,-8.61643 -0.70837,-5.64442 -1.12646,-6.76263 -2.81426,-3.02318 l -4.59551,10.18173 c -0.15787,0.34978 -1.46438,4.20136 -2.01437,6.22611 -0.24717,0.90996 -1.04137,2.95041 -1.04137,2.95041 -0.13551,0.48621 -0.29984,1.12871 -0.36992,1.48242 -0.12725,0.64239 -0.38177,1.92717 -0.38177,1.92717 -0.20782,1.04905 0.40444,0.72748 2.35759,-1.46391 0.36481,-0.40931 1.54457,-1.64903 2.70455,-2.96536 0.79707,-0.90451 1.37441,-1.73391 1.94548,-2.56148 1.32332,-1.9177 3.50152,-4.21559 3.50152,-3.59365 0,0.27766 -2.20573,2.74486 -2.85332,3.52377 0,0 -1.3507,1.91038 -2.09405,2.81226 -0.88413,1.0727 -2.80774,3.0835 -2.80774,3.0835 z m 20.15401,5.19528 c 0.19762,-0.75278 0.45269,-3.24463 -0.44697,-2.94474 -0.2578,0.0859 -2.65528,2.5932 -2.84302,3.08698 -0.40986,1.07801 0.64274,4.35533 1.5331,4.35533 0.56984,0 0.80293,-0.69204 1.26932,-2.57701 0.0908,-0.36708 0.17905,-0.73481 0.27247,-1.10124 0.0697,-0.2736 0.2151,-0.81932 0.2151,-0.81932 z m 87.26935,28.12402 c -1.532,-0.41172 -2.39649,-1.3493 -2.63008,-2.85248 -0.11334,-0.72938 -0.068,-1.48386 0.0336,-2.03666 0.23766,-1.29308 0.87155,-2.03487 1.47587,-3.05206 0.56119,-0.959 1.23762,-1.96192 1.5032,-2.22871 0.26556,-0.26679 0.48285,-0.61947 0.48285,-0.78373 0,-0.16426 1.24483,-1.57623 2.7663,-3.13771 3.83723,-3.93815 4.34811,-4.41978 3.29298,-6.94253 -0.64662,-1.54605 -1.73825,-3.41965 -2.16345,-4.61329 -0.11297,-0.31715 -0.47348,-1.28095 -0.93347,-2.52429 -0.85487,-2.31072 -2.02834,-2.83427 -2.46254,-1.70281 -0.11621,0.30285 -0.56528,0.55425 -0.99795,0.55867 -0.43881,0.004 -1.7248,0.88783 -2.90832,1.99772 -1.9199,1.80048 -2.64688,2.20315 -3.74506,2.07439 -0.19829,-0.0232 0.29727,-0.47829 1.10124,-1.01119 0.80397,-0.53291 1.92231,-1.39577 2.48521,-1.91747 0.92036,-0.853 1.23106,-1.32826 1.73412,-1.71512 0.62647,-0.48175 0.63457,-0.79939 1.31898,-1.30028 1.9019,-1.40501 2.01033,-1.56825 1.76775,-2.66133 -0.29068,-1.30982 -0.40637,-2.18797 -0.4747,-3.60303 -0.0644,-1.33254 -0.67618,-1.45996 -3.20068,-0.66656 -3.73298,1.17321 -5.73813,1.45159 -8.95982,1.24392 -1.71611,-0.11063 -3.67941,-0.18972 -4.36291,-0.17577 -0.6835,0.0139 -1.42683,-0.11585 -1.65186,-0.28844 -0.22502,-0.17259 -1.23508,-0.53346 -2.24455,-0.80191 -2.25036,-0.59844 -3.31742,-1.2195 -4.86642,-2.83241 -2.17504,-2.26475 -2.47787,-3.18453 -2.44923,-7.43874 0.0309,-4.58417 1.02281,-8.06788 3.64919,-12.81601 0.90613,-1.63819 1.64752,-3.22403 1.64752,-3.52411 0,-0.30008 0.32613,-0.54559 0.72474,-0.54559 0.43399,0 0.95319,-0.44179 1.2942,-1.10124 0.31322,-0.60568 0.68913,-1.10181 0.83537,-1.1025 0.14623,-7.3e-4 1.33856,-0.97667 2.64962,-2.16884 1.31105,-1.19217 2.50128,-2.09494 2.64496,-2.00614 0.14367,0.0888 1.30101,-0.28577 2.57185,-0.83236 2.11786,-0.9109 2.80444,-1.00723 8.23016,-1.15478 l 5.91954,-0.16099 0.38771,-1.33456 c 0.21312,-0.734 0.49424,-2.07788 0.6246,-2.98641 0.23206,-1.6174 1.40155,-4.48878 1.79721,-4.09311 0.10978,0.10977 -0.38834,2.20281 -0.71085,3.15262 -0.34607,1.01932 -0.48955,2.16743 -0.35017,2.80203 0.1473,0.67061 0.087,1.0751 -0.16011,1.0751 -0.21794,0 -0.39625,0.33881 -0.39625,0.7529 0,0.63859 1.33673,1.55253 2.93665,2.00784 0.10094,0.0288 0.6791,0.18059 1.28478,0.33748 0.60568,0.15688 1.9183,0.68026 2.91694,1.16307 0.99864,0.48281 2.03329,0.87784 2.29924,0.87784 0.4518,0 1.897,0.68929 2.30896,1.10125 0.10095,0.10094 0.8146,0.50487 1.58589,0.89762 1.87299,0.95374 5.60707,5.2333 6.3433,7.26992 0.33835,0.93599 0.8309,0.79 1.54021,-0.45653 0.34393,-0.60441 0.74921,-1.09997 0.90063,-1.10124 0.15142,-9e-4 0.27531,-0.30999 0.27531,-0.68601 0,-0.37603 0.51428,-1.32585 1.14285,-2.11071 1.6819,-2.10013 5.09752,-9.7353 5.09752,-11.39487 0,-0.49362 0.24514,-1.37156 0.54478,-1.95098 0.61289,-1.18522 1.1392,-7.7401 0.77663,-9.67272 -0.38651,-2.06029 -2.21429,-4.42462 -4.29666,-5.558 -1.70342,-0.92711 -2.22995,-1.02541 -5.42077,-1.01199 -5.20896,0.0219 -5.52709,0.0698 -8.06454,1.21567 -3.90356,1.76269 -7.63769,5.9484 -9.54789,10.70255 -0.4045,1.00674 -1.48845,2.56274 -1.91619,1.87066 -0.12404,-0.2007 0.40798,-2.14445 0.9239,-2.82085 0.51592,-0.67641 0.93803,-1.3193 0.93803,-1.42866 0,-0.5947 3.16557,-4.80113 4.67719,-6.21507 4.17942,-3.90936 9.92365,-5.68996 14.73496,-4.56756 5.7877,1.35018 8.02524,3.54865 9.0308,8.87314 0.53709,2.84385 0.62069,6.75801 0.14447,6.7635 -0.12563,0.002 -0.33935,0.69647 -0.47496,1.54451 -0.1356,0.84803 -0.38125,1.71526 -0.54588,1.92718 -0.16463,0.2119 -0.39608,0.8974 -0.51435,1.52332 -0.18701,0.98981 -1.04288,3.12574 -2.55932,6.38712 -0.23468,0.50473 -0.8765,1.59438 -1.42626,2.42143 -0.54975,0.82706 -1.11836,1.98336 -1.26356,2.56957 -0.14521,0.5862 -0.56768,1.28168 -0.93884,1.54549 -0.37116,0.26382 -0.67483,0.65072 -0.67483,0.8598 0,0.20908 -0.33037,0.80014 -0.73416,1.31348 -0.78515,0.99816 -0.98376,2.83921 -0.34863,3.23175 0.21204,0.13105 0.9207,-0.0157 1.57477,-0.32606 0.65408,-0.31038 2.33255,-0.74698 3.72994,-0.9702 1.39737,-0.22324 2.71226,-0.53907 2.92196,-0.70188 0.2097,-0.16279 0.9534,-0.40475 1.65267,-0.53768 0.69928,-0.13293 2.59892,-0.87951 4.22142,-1.65905 1.62252,-0.77955 3.28041,-1.51956 3.68419,-1.64447 0.40379,-0.12492 1.32129,-0.76438 2.03889,-1.42102 0.71761,-0.65664 1.78318,-1.44167 2.36792,-1.74452 0.58475,-0.30284 2.62055,-2.03584 4.52399,-3.85111 l 3.4608,-3.30048 -1.60729,-0.457 c -2.19807,-0.62498 -4.36041,-1.61391 -4.36041,-1.99422 0,-0.17287 -0.63546,-0.56857 -1.41213,-0.87934 -3.17237,-1.26932 -4.49306,-5.51249 -3.21263,-10.32165 0.64098,-2.40745 3.44729,-7.71156 4.533,-8.56766 0.45426,-0.35819 0.82593,-0.7593 0.82593,-0.89134 0,-0.50273 2.08622,-2.10713 3.65914,-2.81404 2.0488,-0.92079 5.60255,-1.27157 7.54484,-0.74473 1.89061,0.51281 4.44097,2.38642 5.17158,3.79924 0.39538,0.76459 0.50186,1.61879 0.34964,2.80482 -0.12037,0.93798 -0.29635,2.36616 -0.39105,3.17374 -0.17716,1.51067 -1.47297,5.12025 -2.15547,6.00421 -0.57426,0.74378 -1.26744,1.94733 -1.77449,3.08103 -0.24832,0.55521 -0.56476,1.00948 -0.70322,1.00948 -0.43703,0 -2.33875,3.45008 -2.37746,4.31319 -0.0346,0.77158 0.11252,0.82593 2.23591,0.82593 1.25013,0 3.08385,-0.24599 4.07493,-0.54665 0.99108,-0.30066 2.17588,-0.54844 2.63289,-0.55062 0.45699,-0.002 1.11774,-0.16116 1.46831,-0.35327 0.35058,-0.19211 1.29816,-0.6258 2.10574,-0.96376 4.89801,-2.0497 7.47594,-3.54919 9.47663,-5.5122 2.33484,-2.29088 2.35703,-2.12488 -0.48316,-3.61494 -4.10018,-2.15111 -5.51794,-6.05729 -3.55086,-9.78326 1.26279,-2.39193 3.19393,-3.59679 6.21741,-3.87912 2.88006,-0.26895 4.96561,0.43618 6.02799,2.03808 0.8651,1.30443 0.90282,5.93328 0.0562,6.89516 -0.64705,0.73513 -1.90978,3.15518 -2.29173,4.39214 -0.3444,1.11534 1.28079,1.60019 5.36381,1.60019 5.32395,0 8.85425,-0.67819 13.87282,-2.66503 6.4898,-2.5693 12.48074,-8.12042 12.48074,-11.56448 0,-1.42451 -1.94242,-3.2174 -3.85434,-3.55763 -2.68826,-0.47838 -3.33324,-0.36165 -8.07577,1.46163 -0.70838,0.27233 -0.70717,0.25593 0.0346,-0.46702 1.19784,-1.16759 2.76913,-1.85204 5.33862,-2.32548 2.28159,-0.4204 2.43866,-0.39926 4.48713,0.60377 4.70423,2.30344 4.33982,5.99681 -1.10586,11.20835 -3.77264,3.61045 -6.87246,5.36255 -13.71001,7.74935 -2.95741,1.03234 -3.4837,1.09602 -10.08809,1.22066 -4.44413,0.0838 -7.01462,0.27165 -7.09689,0.51846 -0.071,0.21284 -0.42773,0.38698 -0.79286,0.38698 -0.36514,0 -1.30119,0.49957 -2.08013,1.11016 -3.03877,2.38202 -4.93129,3.66188 -5.4148,3.66188 -0.27771,0 -1.86539,0.68093 -3.52817,1.51318 -1.66278,0.83225 -3.87062,1.74213 -4.90632,2.02198 -2.58653,0.69886 -10.08078,1.673 -10.89141,1.41571 -0.43605,-0.13839 -1.01631,0.15757 -1.70013,0.86716 -3.87715,4.02327 -4.73576,4.82731 -5.15496,4.82731 -0.25942,0 -0.47167,0.15172 -0.47167,0.33714 0,0.18543 -0.61944,0.70693 -1.37655,1.15889 -0.75711,0.45197 -1.87211,1.26569 -2.47779,1.80827 -1.15613,1.03569 -6.2386,4.03731 -6.83616,4.03731 -0.19126,0 -0.72568,0.24763 -1.18759,0.55029 -0.98477,0.64524 -5.84106,2.38635 -6.656,2.38635 -0.30852,0 -2.04607,0.35748 -3.86124,0.79439 l -3.3003,0.79439 0.002,1.6834 c 9e-4,0.92588 -0.063,2.48307 -0.0928,3.30166 -0.0512,1.41004 -0.0112,1.62229 -0.27634,2.80109 -0.10811,0.48057 -0.39682,1.92975 -0.88183,3.19372 -0.48502,1.26397 -1.16016,3.20664 -1.50031,4.31705 -0.34016,1.11042 -1.26482,3.04731 -2.05481,4.3042 -0.78998,1.25689 -1.43633,2.39703 -1.43633,2.53364 0,0.25177 -1.26285,2.01402 -3.76258,5.25051 -0.7571,0.98025 -1.37655,1.98451 -1.37655,2.2317 0,0.24718 -1.13704,1.59323 -2.52676,2.99124 -2.83833,2.85525 -3.20629,3.82114 -2.36635,6.21164 0.62654,1.78316 0.81932,6.32002 0.40777,9.59647 -0.19189,1.52772 -0.54252,2.41921 -1.28478,3.26672 -1.57194,1.79484 -2.40695,2.54445 -3.40689,3.05842 -1.17022,0.60149 -4.27571,0.89039 -5.63742,0.52444 z m 4.96854,-1.25848 c 2.233,-0.76086 3.6323,-2.55915 4.38135,-5.63062 0.3267,-1.33958 0.46336,-2.68124 0.30474,-2.99193 -0.15815,-0.30979 -0.27931,-1.48041 -0.26923,-2.60138 0.0186,-2.06465 -0.79702,-3.99342 -1.6886,-3.99342 -0.57249,0 -3.33541,2.96834 -4.05105,4.35222 -0.31553,0.61019 -0.90154,1.33905 -1.30222,1.61969 -0.79596,0.55751 -2.63035,3.10961 -2.73175,3.80056 -0.0348,0.23745 -0.24728,0.65487 -0.47207,0.92761 -0.39848,0.48347 -0.64356,2.03017 -0.53217,3.35847 0.0653,0.7781 1.9692,1.69116 3.56899,1.71154 0.6202,0.008 1.8766,-0.24083 2.79201,-0.55274 z m 5.04818,-20.44591 c 0.97939,-1.04795 1.66083,-2.04554 2.03207,-2.51879 0.62658,-0.79876 2.27481,-2.60932 3.48658,-4.18276 1.82643,-2.43388 4.41819,-6.36393 4.41819,-6.69959 0,-0.17311 0.49555,-1.09616 1.10124,-2.05123 0.60568,-0.95505 1.10226,-1.93722 1.1035,-2.18257 8.9e-4,-0.24536 0.23346,-0.88924 0.51603,-1.43085 0.28256,-0.54161 0.62698,-1.53272 0.76536,-2.20248 0.13839,-0.66976 0.49779,-1.96108 0.79868,-2.8696 0.30089,-0.90853 0.63292,-3.38632 0.73784,-5.50621 l 0.19076,-3.85434 -0.95484,-0.053 c -0.52517,-0.0291 -0.95485,0.0789 -0.95485,0.24011 0,0.16117 -1.1976,1.51214 -2.66133,3.00214 -1.46373,1.49002 -3.44093,3.77717 -4.39379,5.08257 -2.26786,3.10699 -4.59733,5.7846 -10.17981,11.7012 -1.22118,1.29427 -2.21972,2.53317 -2.21896,2.75311 7.4e-4,0.21993 0.33474,0.94666 0.74218,1.61496 0.40745,0.66829 0.6617,1.34309 0.56499,1.49956 -0.40433,0.65422 2.83932,8.84839 3.50261,8.84839 0.15992,0 0.79152,-0.53581 1.40355,-1.19067 z m -4.96553,-13.58431 c 2.15056,-2.07176 8.52253,-9.23333 8.98171,-10.09471 0.2828,-0.53051 0.30436,-0.82593 0.0603,-0.82593 -0.20899,0 -0.37999,0.15308 -0.37999,0.34019 0,0.18711 -0.45427,0.57884 -1.00947,0.87052 -2.47512,1.3003 -4.45935,2.44001 -6.33214,3.63708 -1.11041,0.70977 -2.37277,1.40153 -2.80524,1.53723 -0.43246,0.13571 -0.88573,0.61293 -1.00725,1.06051 -0.26091,0.96093 0.48532,4.66812 0.93965,4.66812 0.17274,0 0.87134,-0.53686 1.55245,-1.19301 z m -10.97647,-2.89884 c 1.21154,-0.17559 3.27637,-0.62149 4.5885,-0.99088 2.71908,-0.76547 2.47346,-0.24898 3.31111,-6.96249 0.28023,-2.24597 0.78863,-4.21733 1.48192,-5.74635 1.38829,-3.06181 4.26295,-7.14218 5.313,-7.5414 1.52559,-0.58003 1.37062,-1.09236 -0.99048,-3.27459 -1.97068,-1.82137 -2.42029,-2.4763 -2.95106,-4.29869 -0.86448,-2.96815 -1.15762,-4.27656 -1.07373,-4.79243 0.11345,-0.69755 -2.30322,-0.96462 -6.748,-0.74572 -3.28482,0.16178 -4.61927,0.40309 -6.64138,1.20093 -1.39182,0.54916 -2.79137,1.22466 -3.11011,1.50111 -0.31874,0.27645 -0.84955,0.50264 -1.17958,0.50264 -0.80814,0 -5.16738,4.11818 -5.93127,5.6033 -0.336,0.65323 -1.01271,1.7464 -1.50379,2.42929 -0.49107,0.68288 -1.04516,1.79314 -1.23129,2.46726 -0.18613,0.6741 -0.65659,1.68465 -1.04547,2.24566 -1.15243,1.66255 -1.74835,4.44943 -1.68591,7.88435 0.0409,2.25005 0.23069,3.44 0.64239,4.02779 0.32138,0.45884 0.58731,1.08658 0.59095,1.39497 0.007,0.59791 2.61548,2.94674 3.27242,2.94674 0.21547,0 0.39177,0.13333 0.39177,0.29631 0,0.16298 1.19759,0.59113 2.66133,0.95143 1.46373,0.36031 2.90911,0.74196 3.21196,0.8481 0.30283,0.10614 1.48389,0.16254 2.62454,0.12534 1.22176,-0.0398 2.17972,0.10354 2.33138,0.34894 0.14181,0.22945 0.52934,0.30002 0.86272,0.15712 0.3329,-0.14271 1.59652,-0.40313 2.80808,-0.57873 z m 12.34716,-4.45325 c 1.68844,-0.8638 3.73062,-1.99413 4.5382,-2.51185 0.80758,-0.51771 1.66267,-1.00856 1.90019,-1.09077 0.62109,-0.21496 4.00535,-3.4827 5.02952,-4.85636 1.27329,-1.70778 2.86497,-4.70898 2.62479,-4.94917 -0.446,-0.44599 -2.87891,-1.10549 -3.37539,-0.91497 -0.28854,0.11072 -0.72318,-0.04 -0.96584,-0.33488 -0.24267,-0.2949 -1.51336,-0.82291 -2.82375,-1.17336 l -2.38254,-0.63718 -0.8118,0.94378 c -0.44651,0.51908 -0.95665,0.94379 -1.13367,0.94379 -0.48498,0 -3.74051,3.84518 -4.57716,5.40619 -0.81422,1.51916 -2.45811,9.08953 -2.1935,10.10141 0.24426,0.93406 0.75637,0.82029 4.17095,-0.92663 z m 14.63292,-16.98406 c 0,-1.056 -1.87286,-1.82079 -4.32924,-1.76787 -2.5717,0.0554 -3.38746,0.46605 -2.45807,1.23738 1.14655,0.95154 6.78731,1.39242 6.78731,0.53049 z m 2.69573,-0.82489 c -0.11649,-0.44545 -0.35771,-0.8099 -0.53606,-0.8099 -0.42517,0 -0.40906,0.25691 0.0726,1.15681 0.49328,0.9217 0.74583,0.73268 0.46351,-0.34691 z m -10.49639,-2.07363 c 1.08496,-0.91293 1.913,-1.02115 6.33234,-0.82757 1.43126,0.0627 1.65186,-0.0257 1.65186,-0.66181 0,-0.48187 -0.28382,-0.77447 -0.82593,-0.85146 -0.45427,-0.0645 -0.82593,-0.28166 -0.82593,-0.48254 0,-1.1066 -4.20308,-3.62044 -6.74577,-4.03462 -0.98461,-0.16038 -2.07133,-0.54602 -2.41493,-0.85698 -0.34361,-0.31097 -0.91662,-0.56539 -1.27336,-0.56539 -0.35674,0 -1.10996,-0.27251 -1.67381,-0.60559 -2.12302,-1.25409 -2.83233,0.47868 -1.63474,3.99344 0.65629,1.92609 4.40076,5.78917 5.61142,5.78917 0.40328,0 1.21277,-0.4035 1.79885,-0.89665 z m 9.54446,0.43779 c -0.084,-0.25236 -0.42758,-0.51214 -0.76346,-0.57729 -0.42586,-0.0826 -0.54364,0.0563 -0.38916,0.45886 0.2604,0.6786 1.37735,0.79337 1.15262,0.11843 z m 35.5884,-13.24258 c 0.16145,-0.26758 0.58637,-0.59422 0.94426,-0.72583 0.3579,-0.13161 0.75701,-0.53213 0.88692,-0.89002 0.12992,-0.35789 0.68546,-1.22887 1.23456,-1.9355 0.5491,-0.70663 1.37963,-2.02811 1.84562,-2.93664 0.466,-0.90852 1.063,-1.78396 1.32668,-1.94541 0.26367,-0.16146 0.47942,-0.45233 0.47942,-0.64639 0,-0.19407 0.32601,-1.05308 0.72447,-1.90894 1.74932,-3.75729 2.25887,-6.89874 1.49461,-9.21445 -0.29866,-0.90499 -0.86459,-1.47506 -2.13855,-2.15426 -3.40239,-1.81392 -7.17976,-1.57203 -10.61098,0.67952 -1.71689,1.12661 -4.15277,4.0252 -4.15277,4.9416 0,0.19811 -0.24778,0.45528 -0.55063,0.57149 -0.30283,0.11621 -0.55062,0.48724 -0.55062,0.8245 0,0.33727 -0.21645,0.93905 -0.48102,1.33728 -1.67128,2.51573 -1.81662,7.9052 -0.26938,9.98916 0.48565,0.65412 1.22484,1.29727 1.64264,1.42921 0.4178,0.13194 0.97548,0.54657 1.23929,0.9214 0.26382,0.37482 0.79092,0.6815 1.17135,0.6815 0.38042,0 0.69673,0.31044 0.93985,0.40154 1.88737,0.70712 2.76883,0.68768 3.8148,1.06678 0.37019,0.13417 0.84802,-0.21894 1.00948,-0.48654 z m 29.60098,-12.08597 c 2.99959,-3.99367 3.9151,-8.41176 2.1359,-10.30745 -1.22465,-1.30484 -4.40029,-1.65064 -6.71653,-0.73139 -1.83068,0.72655 -3.52111,2.46151 -3.95852,4.06277 -0.4339,1.58847 0.55801,3.98816 2.1205,5.13004 0.73619,0.53801 1.52009,1.19162 1.74201,1.45244 0.43954,0.51662 2.63329,1.54915 3.34041,1.57223 0.24209,0.008 0.84339,-0.52248 1.33623,-1.17864 z m -62.32107,82.33484 c -0.0891,-0.31221 -0.42916,-1.72396 -0.75571,-3.13722 -0.32655,-1.41326 -0.82061,-3.17908 -0.84671,-3.66142 -0.0753,-1.39112 0.14407,-2.18775 0.15681,-3.39057 0.0205,-1.93669 0.0263,-2.79276 0.69516,-4.29032 1.8997,-4.2535 3.88657,-5.8887 6.06085,-4.98808 0.89345,0.37008 1.05918,0.73321 1.55931,3.41665 0.30777,1.65141 0.53294,4.65578 0.50038,6.67637 -0.0509,3.15978 -0.17428,3.8354 -0.88158,4.82871 -0.4523,0.6352 -0.82237,1.30588 -0.82237,1.49041 0,0.51751 -2.29599,2.89578 -3.12018,3.232 -1.23265,0.50284 -2.3747,0.42366 -2.54596,-0.17653 z m 3.1162,-2.32297 c 0.31363,-0.24595 1.09705,-1.2185 1.74092,-2.16123 l 1.17068,-1.71406 -0.0975,-4.89339 c -0.10593,-5.31626 -0.99973,-5.80447 -2.15486,-5.94645 -1.07474,0.20367 -2.11545,0.42569 -2.65923,1.65247 -0.65786,1.50249 -1.44696,9.44911 -0.99435,10.01349 0.17622,0.21973 0.43496,0.93539 0.575,1.59034 0.14005,0.65495 0.53078,1.35197 0.86833,1.54893 0.77958,0.4549 0.86216,0.4501 1.55102,-0.0901 z M 292.20363,256.26809 c 0.15336,-0.10311 0.37815,-0.51786 0.49954,-0.92165 0.12139,-0.40379 0.74582,-2.13824 1.38763,-3.85434 0.64181,-1.7161 1.25016,-3.61575 1.3519,-4.22142 0.10174,-0.60568 0.4234,-1.37393 0.7148,-1.70719 0.2914,-0.33327 0.38292,-0.69674 0.20337,-0.80771 -0.17954,-0.11097 -0.80975,0.42669 -1.40046,1.19478 -1.78893,2.32612 -5.22716,6.35157 -5.44335,6.13537 -0.11212,-0.11212 1.65082,-2.60625 2.26117,-3.3014 0.61035,-0.69516 1.41129,-1.77441 1.77986,-2.39836 0.36857,-0.62394 0.7997,-1.13443 0.95806,-1.13443 0.15837,0 0.29263,-0.28908 0.29836,-0.6424 0.005,-0.35331 0.67864,-1.38572 1.49536,-2.29425 1.34234,-1.49322 2.56828,-3.35823 2.53362,-3.85438 -0.007,-0.10519 0.2667,-0.61868 0.609,-1.14109 0.5006,-0.76401 0.94981,-1.94345 0.98358,-2.60467 0.097,-1.89845 0.23289,-2.93868 0.23572,-4.83471 -0.006,-3.23959 -0.32034,-4.0164 -1.41803,-3.50987 -1.3464,0.6213 -5.60855,4.3604 -6.1453,5.39116 -0.28912,0.55521 -0.66649,1.00947 -0.83862,1.00947 -0.17212,0 -0.93741,0.90668 -1.70064,2.01486 -0.76323,1.10818 -1.78489,2.27512 -2.27037,2.59322 -1.62427,1.06426 -2.38093,3.5719 -2.32327,7.69959 0.0596,4.27255 0.54839,8.19126 1.08896,8.73184 0.35483,0.35483 0.80307,-0.0604 2.4787,-2.29576 0.23586,-0.31466 1.9161,-1.95491 2.02866,-1.84234 0.11258,0.11257 -1.8643,2.57632 -2.68785,3.67236 -1.33494,1.77663 -1.47512,2.15505 -1.29236,3.48851 0.11276,0.82264 0.5636,2.31131 1.00187,3.30816 l 0.79685,1.81246 1.26723,-2.74917 c 0.69697,-1.51204 1.3927,-2.83354 1.54605,-2.93664 z m -2.54241,-22.06656 c 0.83356,-0.98855 1.74348,-2.16468 1.89462,-2.34778 0.87666,-1.06203 1.89651,-2.08344 2.75105,-2.90725 1.37188,-1.26824 1.38703,-1.34364 2.11208,-1.96757 1.58168,-1.36111 3.27289,-1.81028 2.39904,-2.8632 -0.89685,-1.08064 -2.35219,-1.57907 -3.97508,-1.36139 -1.55198,0.20817 -1.7774,0.37634 -4.88878,3.64732 -1.17792,1.23835 -2.85875,4.30403 -2.85875,5.2141 0,0.35273 -0.14406,0.79825 -0.32014,0.99005 -0.38132,0.41535 -0.85279,3.27486 -0.58424,3.54342 0.53753,0.53752 2.12675,-0.35445 3.4702,-1.9477 z m 14.67845,-3.022 c 0.004,-0.16867 0.58666,-1.48025 1.2933,-2.91461 0.70662,-1.43436 1.28478,-2.81308 1.28478,-3.06382 0,-0.25073 -0.49757,-0.81018 -1.10572,-1.24322 -1.27518,-0.90801 -2.82971,-0.757 -3.85355,0.37433 -0.52702,0.58235 -0.56288,0.89039 -0.21864,1.87787 0.26607,0.76327 0.32625,2.42527 0.17005,4.69701 l -0.24173,3.51577 1.33149,-1.46832 c 0.73233,-0.80758 1.33533,-1.60634 1.34002,-1.77501 z m 117.67221,64.27046 c 0.0213,-0.45426 0.21673,-1.15631 0.43438,-1.5601 0.67071,-1.24433 1.42592,-4.73833 1.46932,-5.19826 0.023,-0.2444 0.0815,-0.25336 0.13357,-0.49149 0.13278,-0.60788 0.1566,-5.61015 -0.60945,-6.77928 -0.33027,-0.50406 -1.16155,-1.26323 -1.84729,-1.68704 -1.10575,-0.68338 -1.24681,-0.94961 -1.24681,-2.35321 0,-1.70713 0.3469,-2.02828 2.19085,-2.02828 0.86144,0 1.05573,0.17836 1.18987,1.09228 0.0881,0.60076 0.005,1.14388 -0.18368,1.20695 -0.18919,0.063 0.0831,0.62227 0.60519,1.24269 0.52205,0.62041 1.11492,1.56397 1.31749,2.09678 0.50749,1.3348 1.37585,1.21294 1.99992,-0.28066 0.91062,-2.17943 3.38858,-2.18089 5.5035,-0.004 1.40942,1.45124 1.87783,1.54492 2.44315,0.4886 0.66589,-1.2442 2.336,-1.74485 4.50536,-1.35056 2.33508,0.42442 3.11951,0.83145 3.58776,1.86161 0.55351,1.21775 1.30442,2.47174 1.74237,2.90969 0.23231,0.23231 0.26674,0.63157 0.0844,0.97857 -0.16941,0.32238 -0.42487,1.92878 -0.56768,3.56977 -0.24441,2.80829 -0.21218,3.01687 0.5483,3.54954 0.52503,0.36774 1.24174,0.49552 2.04668,0.3649 0.95616,-0.15517 1.29426,-0.0563 1.48225,0.43363 0.14365,0.37434 0.0334,0.76769 -0.2688,0.95905 -0.61383,0.38867 -6.54652,0.44261 -6.01855,0.0547 0.20189,-0.14833 0.38105,-1.3434 0.39813,-2.65572 0.0171,-1.31231 0.16028,-3.29896 0.31822,-4.41477 0.26814,-1.89455 0.21158,-2.14072 -0.85521,-3.72139 -0.85178,-1.2621 -1.44625,-1.74882 -2.33715,-1.91353 -1.88918,-0.34926 -3.29599,0.19895 -3.70371,1.44331 -0.19485,0.59467 -0.47874,1.16383 -0.63086,1.26477 -0.3869,0.25682 -1.08165,4.21312 -1.08165,6.15959 0,2.20373 -1.01609,5.58706 -1.67792,5.58706 -0.28851,0 -0.52457,-0.25311 -0.52457,-0.56245 0,-0.30935 -0.37167,-0.71184 -0.82592,-0.89443 -0.47363,-0.19038 -0.59107,-0.3428 -0.27532,-0.35735 0.60956,-0.0281 1.72037,-4.24887 1.79281,-6.81216 0.0828,-2.92927 -1.96643,-6.42391 -3.76688,-6.42391 -0.71451,0 -0.94857,0.29079 -1.32965,1.65186 -0.25437,0.90853 -0.58694,1.65186 -0.73905,1.65186 -0.45122,0 -0.77575,1.45893 -1.06152,4.77205 -0.37724,4.37375 -1.67667,6.9338 -3.53422,6.96286 -0.54378,0.009 -0.73579,-0.21244 -0.70763,-0.81426 z M 309.12023,294.8214 c -1.40535,-0.1679 -1.67076,-0.33123 -1.7785,-1.09448 -0.16923,-1.19896 0.80237,-1.85597 2.7447,-1.85597 0.85801,0 1.49119,-0.005 1.7869,-0.36708 0.42315,-0.51784 0.37798,-0.48894 0.48528,-0.92259 0.13289,-0.53712 0.27813,-1.31771 0.39189,-1.84285 0.40865,-1.88647 0.40761,-2.15952 0.40761,-3.8502 l 0,-3.67901 -1.46522,-1.58958 c -1.40306,-1.52214 -1.43687,-1.61523 -0.79702,-2.19428 0.3675,-0.33259 1.03272,-0.60471 1.47826,-0.60471 1.00083,0 2.1436,2.4334 2.47769,5.27596 0.26687,2.27067 -0.5023,8.7482 -1.082,9.11199 -0.62104,0.38974 -0.0744,0.72011 1.47493,0.89143 2.54261,0.28114 4.15373,0.93295 4.15373,1.68048 0,0.63507 -0.28878,0.68379 -3.57904,0.60381 -1.96846,-0.0479 -3.9094,0.0754 -4.31319,0.27371 -0.40379,0.19838 -1.4775,0.27191 -2.38602,0.16337 z m 13.23161,-1.96507 c -0.54966,-1.16066 -0.88004,-1.85022 0.32445,-2.38338 0.88168,-0.39027 1.22878,-0.39 1.92717,0.002 0.46858,0.26288 0.98395,0.68464 1.1454,0.93701 0.98612,1.5414 3.71951,-1.29731 3.49487,-3.62952 -0.0959,-0.99518 -0.32132,-1.28147 -1.21886,-1.54771 -3.37964,-1.00254 -4.28494,-1.45772 -4.61245,-2.31912 -0.54319,-1.42871 0.60826,-4.4342 2.3802,-6.21275 1.33215,-1.33709 1.65057,-1.48513 2.87464,-1.33639 1.02947,0.1251 1.37655,0.33702 1.37655,0.84047 0,0.82882 -1.34146,1.81605 -2.46769,1.81605 -1.08453,0 -2.30435,1.23294 -2.30435,2.32913 0,1.19358 1.13322,2.10075 2.92433,2.34099 1.28086,0.17179 1.59029,0.38795 2.01687,1.40888 0.46369,1.10978 0.69454,2.74266 0.6022,4.25959 -0.0204,0.33601 -0.69352,1.32713 -1.4957,2.20248 -0.80218,0.87533 -1.46295,1.71541 -1.46833,1.86684 -0.005,0.15142 -0.31995,0.27531 -0.69903,0.27531 -0.37906,0 -0.77105,0.39411 -1.12072,0.51995 -1.86755,0.67206 -2.8751,0.32903 -3.67955,-1.36961 z m 131.14391,1.26522 c -0.21003,-0.0355 -1.17744,-0.1035 -1.58122,-0.23166 -0.77776,-0.24685 -1.03491,-1.78974 -0.36709,-2.20248 0.2019,-0.12478 0.36709,-0.52727 0.36709,-0.89442 0,-0.36715 0.25867,-0.88222 0.57482,-1.14461 1.39179,-1.15508 2.33429,-4.35996 1.52128,-5.17297 -0.2815,-0.28151 -0.6974,-0.85856 -0.9242,-1.28234 -0.22679,-0.42378 -0.99623,-1.04757 -1.70983,-1.38621 -1.44128,-0.68393 -1.66511,-1.4599 -0.58744,-2.03665 1.25335,-0.67077 2.00806,-0.41012 3.64833,1.26007 1.6039,1.63314 1.60508,1.63635 1.38676,3.75982 -0.33912,3.29841 -0.43083,3.70423 -0.99575,4.40602 -0.98312,1.22134 -1.50732,2.39299 -1.20048,2.6832 0.43779,0.41406 5.1896,0.55339 6.84154,0.2006 1.13843,-0.24312 1.37831,-0.44292 1.29611,-1.07958 -0.0555,-0.42969 -0.0113,-0.94644 0.0981,-1.14833 1.32177,-2.43844 1.24353,-5.81797 -0.14966,-6.46498 -0.8847,-0.41087 -2.22719,-2.74518 -1.89131,-3.28863 0.43595,-0.70541 1.53705,-0.29388 3.01599,1.12722 0.84044,0.80757 1.63471,1.46832 1.76503,1.46832 0.13032,0 1.06115,-0.65624 2.06852,-1.45833 1.00738,-0.80208 2.35252,-1.55521 2.9892,-1.67361 2.38143,-0.44288 5.32359,1.80147 5.39579,4.11605 0.044,1.40978 -0.4192,4.25578 -0.76583,4.70564 -0.15556,0.20189 -0.28192,0.98955 -0.2808,1.75036 0.002,1.00666 0.20212,1.49036 0.73686,1.77654 0.77257,0.41346 3.69567,0.29303 4.78975,-0.19735 1.01478,-0.45482 0.79727,0.70596 -0.26239,1.40027 -0.58042,0.38031 -1.69904,0.59285 -3.12019,0.59285 -2.9502,0 -3.68372,-0.68832 -3.68372,-3.45668 0,-1.09359 0.15506,-2.04341 0.34456,-2.11072 0.18951,-0.0673 0.45811,-0.9862 0.59691,-2.04202 0.24043,-1.82884 0.19807,-1.96733 -0.89517,-2.92662 -0.63115,-0.55382 -1.14754,-1.21794 -1.14754,-1.47582 0,-0.29256 -0.49093,-0.46888 -1.30548,-0.46888 -1.00234,0 -1.55637,0.2747 -2.38601,1.18305 -0.59431,0.65068 -1.08056,1.32624 -1.08056,1.50125 0,0.17501 -0.36413,0.61305 -0.80917,0.97344 -0.71076,0.57553 -0.82327,1.07034 -0.92499,4.06789 -0.0637,1.87696 -0.29794,3.63211 -0.52055,3.90034 -0.46882,0.56489 -1.64063,0.64822 -1.95532,0.13904 -0.12247,-0.19817 -0.77417,-0.019 -1.50996,0.41513 -1.0338,0.60995 -1.90037,0.73645 -4.30292,0.75173 -1.06936,0.007 -2.52049,0.0585 -3.07908,-0.036 z m -117.15381,-0.0705 c -1.55246,-0.33639 -1.98696,-0.77442 -1.83247,-1.84739 0.0776,-0.53878 0.44113,-0.9278 0.98649,-1.05559 0.59641,-0.13976 1.25077,-0.92991 2.11478,-2.55363 1.0856,-2.04018 1.23476,-2.63158 1.12741,-4.47012 -0.13897,-2.3804 -0.66716,-3.26577 -1.94829,-3.26577 -0.96551,0 -1.04189,-0.24153 -0.51476,-1.62797 0.45633,-1.20026 1.79259,-1.25135 2.86526,-0.10954 0.92798,0.98778 1.89675,3.268 1.51809,5.83373 -0.22398,1.51756 -0.75513,3.13399 -1.25813,4.34999 -0.14932,0.36099 -0.54657,0.62167 -0.54657,0.82705 0,0.20539 -0.28908,0.60959 -0.64239,0.89823 -0.56721,0.46335 -0.35856,0.5025 1.78266,0.3345 2.55427,-0.2004 5.10009,-1.33998 5.10009,-2.28293 0,-0.34313 0.42773,-0.51437 1.28478,-0.51437 1.51784,0 1.6717,0.62809 0.54236,2.2141 -0.50984,0.716 -1.63109,1.38039 -3.57904,2.12074 -3.18574,1.2108 -5.19378,1.54038 -7.00027,1.14897 z m 173.47953,-6.23813 c -0.89139,-0.53204 -0.80219,-1.60502 0.22563,-2.71405 1.06397,-1.14805 1.13647,-1.14992 2.31234,-0.0596 0.81086,0.75188 0.8962,1.02686 0.59809,1.92717 -0.26473,0.7995 -0.60383,1.0716 -1.4207,1.14002 -0.59014,0.0495 -1.36205,-0.0827 -1.71536,-0.29355 z M 250.8456,273.00362 c -1.41658,-1.07145 -1.95256,-2.39417 -1.56018,-4.80501 0.5366,-3.29706 1.74434,-4.95989 3.60242,-4.95989 0.39234,0 0.91452,0.24239 1.1604,0.53867 0.50363,0.60683 0.66256,4.34865 0.23828,5.60992 -0.23748,0.70599 -0.14843,0.82594 0.61318,0.82594 0.4992,0 1.15834,-0.36321 1.4989,-0.82594 1.25204,-1.70118 3.0103,-4.56574 3.83391,-6.24623 0.46843,-0.95577 1.85963,-4.2092 2.0441,-4.2092 0.30771,0 -1.25206,4.46178 -2.0235,5.77515 -0.17788,0.30285 -0.48851,0.9636 -0.69031,1.46833 -0.20179,0.50474 -0.62454,1.33067 -0.93945,1.83541 -0.31491,0.50473 -0.66424,1.20677 -0.77629,1.56009 -0.11205,0.35331 -0.3296,0.64239 -0.48345,0.64239 -0.15386,0 -0.485,0.49556 -0.73589,1.10124 -0.25088,0.60568 -0.61424,1.10123 -0.80747,1.10123 -0.19323,0 -1.12657,1.44397 -2.26755,1.47663 -1.67781,0.048 -1.16878,0.27479 -2.7071,-0.88873 z m 1.7232,-2.94856 c 0.23976,-0.2889 0.53051,-1.44166 0.64611,-2.56169 0.1788,-1.73242 0.11251,-2.07391 -0.44407,-2.28748 -0.87041,-0.33401 -1.55531,0.64249 -1.85572,2.64581 -0.16382,1.09238 -0.0839,1.74987 0.26025,2.13894 0.62618,0.70811 0.8506,0.71848 1.39343,0.0644 z m 201.33602,3.55368 c -0.57311,-0.8717 -0.79263,-2.51304 -0.38994,-2.91573 0.33336,-0.33335 1.33629,0.40434 1.33629,0.98288 0,0.35748 0.24778,0.85558 0.55062,1.10692 0.30284,0.25134 0.55062,0.76712 0.55062,1.14619 0,1.04724 -1.28013,0.84701 -2.04759,-0.32026 z m -114.19094,-0.18083 c -1.18601,-0.28598 -1.564,-0.56727 -1.69696,-1.26283 -0.20122,-1.05261 0.70168,-1.75606 2.67223,-2.08194 1.57778,-0.26094 2.48507,0.35002 2.79095,1.87939 0.17783,0.88916 0.0697,1.20215 -0.52522,1.52055 -0.85473,0.45744 -1.1349,0.45267 -3.241,-0.0552 z m -25.42953,-1.71128 c -0.81845,-1.14942 -1.00422,-2.77696 -0.36225,-3.17372 0.46277,-0.28601 2.48422,1.5163 2.90269,2.58799 0.68435,1.75267 -1.37192,2.22676 -2.54044,0.58573 z"
       id="path3053"
       inkscape:connector-curvature="0"
       sodipodi:nodetypes="csssssssccssscssssssssscssssssccssssscsscscsccsscccssscsscccssscsssssssscsssssssssssssssssssssssssssssssscsssssscsssscssssscsssscssccsssssssssssssssccssccsssssccccscscsssssscsscsscsssssssssssssscscscsssssscssssssssssccsssssscssssscscsssscssscssssssssssscssssssscssccsssssscscssscscsscsssssssscssssccssccsscssscssscssssssssssssssscsccssssssscsccssscscssssssssscsssscssccsssssscsssssssssssscssssssssscsssssccsssssssssssssccssccssscsccscscsscssssccsssscscscccssssscssccssssssscsssssssssscsssscccssscscccscsssssscsccsscsssccsssssssccccsscssssssssssssssssssscsssssscscssscssssssssssscccssccscsscscssscscsssscsssssscssscsccscsscsssscscsssssscsccsssscssccssscsscscsssssccsssscsssscssssscccssssssscsssssssscssssssssssssssscssssssssscssssssscsccccsssscscssssscssssssccsccssscscsssscsscsssssscscscccssscsssssscssscssscscscccscsssscsssccsssccsc" />
  </g>
</svg>
